<svg width="125" height="70" viewBox="0 0 125 70" fill="none" xmlns="http://www.w3.org/2000/svg">
<path d="M26.8513 32.7437C25.8636 32.7437 25.0679 33.7893 25.0679 35.055C25.0679 36.3207 25.8636 37.3663 26.8513 37.3663C27.8391 37.3663 28.6348 36.3207 28.6348 35.055C28.6348 33.7893 27.8391 32.7437 26.8513 32.7437Z" fill="white"/>
<path d="M112.402 43.6674H112.018V44.603H112.402C112.814 44.603 113.061 44.5204 113.061 44.1077C113.061 43.6949 112.759 43.6674 112.402 43.6674Z" fill="white"/>
<path d="M37.9089 32.6887C36.9212 32.6887 36.1255 33.7343 36.1255 35C36.1255 36.2657 36.9212 37.3113 37.9089 37.3113C38.8967 37.3113 39.6924 36.2657 39.6924 35C39.6924 33.7343 38.8967 32.6887 37.9089 32.6887Z" fill="white"/>
<path d="M48.5818 32.7162C47.594 32.7162 46.7983 33.7618 46.7983 35.0275C46.7983 36.2932 47.594 37.3388 48.5818 37.3388C49.5696 37.3388 50.3653 36.2932 50.3653 35.0275C50.3653 33.7618 49.5696 32.7162 48.5818 32.7162Z" fill="white"/>
<path d="M59.3646 32.0833C58.2945 31.8632 57.6086 32.4961 57.3616 33.349C57.2519 33.7618 57.2793 33.8994 57.3068 34.092L60.3798 32.9088C60.1877 32.4135 59.8585 32.1659 59.3646 32.0833Z" fill="white"/>
<path d="M84.3881 28.2587H83.8394V36.5959H84.3881C86.7203 36.5959 87.7081 34.8349 87.7081 32.3585C87.7081 29.9096 86.7203 28.2587 84.3881 28.2587Z" fill="white"/>
<path d="M97.2844 32.6612C96.2967 32.6612 95.501 33.7068 95.501 34.9725C95.501 36.2382 96.2967 37.2838 97.2844 37.2838C98.2722 37.2838 99.0679 36.2382 99.0679 34.9725C99.0679 33.7068 98.2722 32.6612 97.2844 32.6612Z" fill="white"/>
<path d="M62.4384 6.87893C63.5085 6.24607 64.0023 5.31054 64.0023 3.82469C64.0023 1.54088 62.5207 1.51337 62.4933 1.51337C62.4384 1.51337 60.9019 1.54088 60.9019 3.82469C60.9019 5.31054 61.3683 6.24607 62.4384 6.87893Z" fill="#600524"/>
<path d="M118.878 23.2233L118.521 22.9481L118.603 22.5079C119.234 18.463 111.854 16.3719 111.771 16.3443L111.36 16.2343L111.222 15.8491C110.097 12.4646 105.543 12.0794 103.65 12.0794C103.183 12.0794 102.881 12.1069 102.881 12.1069L102.333 12.1619L102.113 11.6667C101.043 9.21776 98.4364 8.69497 96.406 8.69497C94.9244 8.69497 93.7445 8.97012 93.7445 8.97012L93.333 9.08019L93.0311 8.77751C90.8636 6.60377 88.01 6.16352 85.9796 6.16352C84.4157 6.16352 83.2633 6.43868 83.2633 6.43868L82.7694 6.54874L82.4676 6.136C82.4127 6.08097 81.2054 4.59512 77.9129 4.59512C75.0045 4.59512 73.7698 5.69575 72.4802 6.87893C71.1632 8.0621 69.7913 9.2728 66.9377 9.2728C65.072 9.2728 63.5903 9.05267 62.4105 8.5849C61.2581 9.05267 59.8039 9.2728 57.9656 9.2728C55.112 9.2728 53.7401 8.0621 52.4231 6.87893C51.1061 5.72327 49.8714 4.59512 46.9904 4.59512C43.6704 4.59512 42.4906 6.08097 42.4357 6.136L42.1339 6.52122L41.6675 6.41116C41.6675 6.41116 40.5151 6.136 38.9511 6.136C36.9207 6.136 34.0672 6.60377 31.8996 8.75L31.5978 9.05267L31.1862 8.94261C31.1862 8.94261 30.0064 8.66745 28.5247 8.66745C26.5218 8.66745 23.8877 9.19025 22.8177 11.6391L22.5982 12.1344L22.0494 12.1069C22.0494 12.1069 21.7476 12.0794 21.2812 12.0794C19.3879 12.0794 14.8333 12.4371 13.7083 15.8491L13.5986 16.2068L13.2144 16.3168C13.1321 16.3443 5.75132 18.463 6.38239 22.4803L6.46471 22.9206L6.10802 23.1958C6.05314 23.2508 -0.669136 28.4788 2.29415 33.2115L2.48622 33.4866L2.4039 33.8168C2.32159 34.092 0.53813 40.8333 5.5867 42.9245L5.94339 43.0621L6.0257 43.4198C6.05314 43.5024 7.94635 50.6289 12.9126 50.739H13.379L13.5711 51.1517C13.5985 51.2068 16.0405 55.967 20.1013 55.967C20.5952 55.967 21.0891 55.8844 21.583 55.7744L22.022 55.6643L22.3238 55.9945C22.3512 56.022 25.781 59.7641 29.1833 59.7641C29.7594 59.7641 30.3082 59.6541 30.8295 59.434L31.2685 59.2413L31.6252 59.5715C31.6527 59.599 34.8903 62.4882 38.7042 62.4882C39.6645 62.4882 40.57 62.2956 41.448 61.9379L41.8595 61.7728L42.2162 62.0479C42.2437 62.0755 45.0423 64.2492 47.4843 64.2492C50.036 64.2492 52.0664 63.066 53.8499 62.0479C55.2218 61.25 56.5388 60.4796 57.9107 60.3695C58.1851 60.342 58.4594 60.342 58.7338 60.342C60.0783 60.342 61.3953 60.6171 62.4654 61.0849C63.5629 60.5896 64.9073 60.3695 66.4713 60.3695C66.6634 60.3695 66.8554 60.3695 67.0475 60.3695C68.4743 60.4245 69.8187 61.2225 71.2455 62.0479C73.0015 63.0935 75.0045 64.2492 77.5013 64.2492C79.9433 64.2492 82.7419 62.0479 82.7694 62.0479L83.1261 61.7728L83.5376 61.9379C84.3882 62.2956 85.3211 62.4882 86.2814 62.4882C90.0679 62.4882 93.3055 59.599 93.3604 59.5715L93.7171 59.2413L94.1561 59.434C94.6774 59.6541 95.2262 59.7641 95.8024 59.7641C99.2047 59.7641 102.634 56.022 102.662 55.9945L102.964 55.6643L103.403 55.7744C103.897 55.9119 104.39 55.967 104.884 55.967C108.945 55.967 111.387 51.2068 111.415 51.1517L111.607 50.739H112.073C117.067 50.6289 118.96 43.5024 118.96 43.4198L119.042 43.0621L119.399 42.9245C124.447 40.8333 122.664 34.092 122.582 33.8168L122.499 33.4866L122.664 33.2115C125.655 28.4788 118.932 23.2508 118.878 23.2233ZM21.3909 40.3931H17.4399V34.202H13.7906V40.3931H9.83956V24.7917H13.7906V30.68H17.4399V24.7917H21.3909V40.3931ZM25.5066 24.544C26.7138 24.544 27.6742 25.5071 27.6742 26.7178C27.6742 27.9285 26.7138 28.8915 25.5066 28.8915C24.2993 28.8915 23.339 27.9285 23.339 26.7178C23.339 25.5346 24.2993 24.544 25.5066 24.544ZM32.2837 40.3931H28.8814V39.5951H28.854C28.2229 40.4481 27.3175 40.7233 26.2474 40.7233C23.2567 40.7233 21.8025 37.8616 21.8025 34.945C21.8025 34.945 21.8025 29.4418 26.1925 29.4418C26.1925 29.4418 28.0034 29.2492 28.8814 30.5149V29.6344H32.2837V40.3931V40.3931ZM30.1985 28.8915C29.0186 28.8915 28.0309 27.9285 28.0309 26.7178C28.0309 25.5071 28.9912 24.544 30.1985 24.544C31.4057 24.544 32.366 25.5071 32.366 26.7178C32.366 27.9285 31.3783 28.8915 30.1985 28.8915ZM43.0668 40.3931H39.6645V39.5951H39.6096C38.9786 40.4481 38.0731 40.7233 37.003 40.7233C34.0123 40.7233 32.5581 37.8616 32.5581 34.945C32.5581 34.945 32.5581 29.4418 36.9482 29.4418C36.9482 29.4418 38.7591 29.2492 39.6371 30.5149V29.6344H43.0394V40.3931H43.0668ZM53.7401 40.3931C53.7401 41.8789 52.4506 45.3734 48.8288 45.456C45.1246 45.566 45.0149 44.5755 45.0149 44.5755V41.6038C49.405 42.897 50.1183 40.3931 50.1183 40.3931L50.3378 39.5951H50.283C49.6519 40.4481 48.7464 40.7233 47.7038 40.7233C44.7131 40.7233 43.2589 37.8616 43.2589 34.945C43.2589 34.945 43.2589 29.4418 47.6489 29.4418C47.6489 29.4418 49.4598 29.2492 50.3378 30.5149V29.6344H53.7401V40.3931V40.3931ZM59.996 37.6415C61.1484 37.614 62.5202 36.7885 63.3159 36.4033L63.1239 39.5126C61.8617 40.3931 60.2155 40.8058 58.3497 40.5307C54.8377 40.0079 53.6304 36.6234 54.0694 33.6792C54.6181 30.0472 57.4991 28.4788 60.4075 29.2217C63.0141 29.8821 63.9745 32.1934 64.1116 34.6973L57.9107 37.0362C58.432 37.8066 59.6118 37.669 59.996 37.6415ZM73.5228 40.3931H70.0931V33.7618C70.0931 33.3215 69.8187 32.5786 68.9956 32.5786C68.2548 32.5786 67.8158 33.294 67.8158 33.7893V40.3931H64.3311V29.4969H67.5688V30.4599H67.6511C68.6115 29.2217 70.3126 29.3318 70.3126 29.3318C72.3704 29.3318 73.5228 30.9277 73.5228 33.0464V40.3931V40.3931ZM78.4342 35.8255H74.8124V32.1934H78.4342V35.8255ZM84.6626 40.3931H79.7238V24.544H84.6626C89.0527 24.5715 91.5495 27.8734 91.5495 32.5511C91.5495 37.0362 89.0527 40.4206 84.6626 40.3931ZM102.442 40.338H99.04V39.5401H99.0126C98.3815 40.3931 97.4761 40.6682 96.4334 40.6682C93.4427 40.6682 91.9885 37.8066 91.9885 34.8899C91.9885 34.8899 91.9885 29.3868 96.3786 29.3868C96.3786 29.3868 98.1895 29.1942 99.0675 30.4599V29.5794H102.47V40.338H102.442ZM102.634 40.283L105.845 32.9363H103.046V29.5519H111.03H111.222L107.82 37.1737L107.875 37.2838H110.509V40.3105H102.634V40.283ZM112.43 47.3546C111.003 47.3546 109.878 46.1989 109.878 44.7956C109.878 43.3923 111.03 42.2366 112.43 42.2366C113.829 42.2366 114.981 43.3923 114.981 44.7956C115.009 46.1989 113.856 47.3546 112.43 47.3546ZM114.021 40.7508C112.896 40.7508 111.799 40.4756 110.783 39.9253L111.113 36.9536C111.799 37.4214 112.457 37.7516 113.253 37.8616C113.939 37.9717 114.872 37.8891 114.872 37.3113C114.872 36.4308 110.646 37.7241 110.646 32.6612C110.646 31.0377 112.457 29.3868 115.009 29.3868C116.244 29.3868 117.972 29.7445 118.631 30.1847L118.192 32.9638C117.588 32.8263 116.765 32.6061 116.079 32.6061C115.667 32.6061 114.817 32.6061 114.817 33.1289C114.817 34.092 119.042 32.7712 119.042 37.0912C119.042 39.5676 116.683 40.7508 114.021 40.7508Z" fill="white"/>
<path d="M112.43 42.5118C111.168 42.5118 110.125 43.5299 110.125 44.8231C110.125 46.0888 111.168 47.1344 112.43 47.1344C113.692 47.1344 114.735 46.0888 114.735 44.8231C114.735 43.5299 113.692 42.5118 112.43 42.5118ZM113.199 46.2814L112.43 45.0157H112.019V46.2814H111.497V43.2272H112.485C113.089 43.2272 113.555 43.5023 113.555 44.1077C113.555 44.4929 113.336 44.8506 112.897 44.9056L113.775 46.2814H113.199Z" fill="white"/>
<path d="M62.4381 62.8459C61.2857 63.5888 60.737 64.7445 60.7918 66.3679C60.8467 68.294 62.2186 68.4316 62.4655 68.4316H62.493C62.8771 68.4316 64.1667 68.2665 64.1667 66.2854C64.1941 64.7445 63.5905 63.5888 62.4381 62.8459Z" fill="#600524"/>
<path d="M17.4396 30.68H13.7904V24.7917H9.83936V40.3931H13.7904V34.202H17.4396V40.3931H21.3907V24.7917H17.4396V30.68Z" fill="#600524"/>
<path d="M70.313 29.3043C70.313 29.3043 68.6118 29.1942 67.6515 30.4324H67.5692V29.4694H64.3315V40.3656H67.8161V33.7618C67.8161 33.2665 68.2552 32.5511 68.996 32.5511C69.8191 32.5511 70.0935 33.294 70.0935 33.7343V40.3656H73.5232V33.0189C73.5232 30.9002 72.3708 29.3043 70.313 29.3043Z" fill="#600524"/>
<path d="M84.6625 24.544H79.7236V40.3931H84.6625C89.0525 40.4481 91.5493 37.0362 91.5493 32.5786C91.5493 27.8734 89.0525 24.5716 84.6625 24.544ZM84.3881 36.6234H83.8393V28.2862H84.3881C86.7203 28.2862 87.708 29.9096 87.708 32.386C87.708 34.8349 86.7203 36.6234 84.3881 36.6234Z" fill="#600524"/>
<path d="M114.817 33.1289C114.817 32.6061 115.668 32.6061 116.079 32.6061C116.765 32.6061 117.588 32.7987 118.192 32.9638L118.631 30.1847C117.972 29.772 116.244 29.3868 115.009 29.3868C112.457 29.3868 110.646 31.0377 110.646 32.6611C110.646 37.724 114.872 36.4033 114.872 37.3113C114.872 37.8616 113.939 37.9717 113.253 37.8616C112.485 37.7516 111.826 37.4214 111.113 36.9536L110.784 39.9253C111.799 40.4756 112.924 40.7508 114.021 40.7508C116.683 40.7508 119.015 39.5676 119.015 37.0637C119.042 32.7712 114.817 34.1195 114.817 33.1289Z" fill="#600524"/>
<path d="M50.3378 30.5425C49.4597 29.2767 47.6488 29.4693 47.6488 29.4693C43.2588 29.4693 43.2588 34.9725 43.2588 34.9725C43.2588 37.8892 44.713 40.7508 47.7037 40.7508C48.7738 40.7508 49.6792 40.4756 50.2829 39.6226H50.3378L50.1183 40.4206C50.1183 40.4206 49.4323 42.9245 45.0148 41.6313V44.603C45.0148 44.603 45.1246 45.5936 48.8287 45.4835C52.4505 45.401 53.7401 41.9065 53.7401 40.4206V29.6895H50.3378V30.5425V30.5425ZM48.5817 37.3388C47.594 37.3388 46.7983 36.2932 46.7983 35.0275C46.7983 33.7618 47.594 32.7162 48.5817 32.7162C49.5695 32.7162 50.3652 33.7618 50.3652 35.0275C50.3652 36.3208 49.5695 37.3388 48.5817 37.3388Z" fill="#600524"/>
<path d="M25.5065 28.8915C26.7137 28.8915 27.674 27.9285 27.674 26.7178C27.674 25.5071 26.7137 24.544 25.5065 24.544C24.2992 24.544 23.3389 25.5071 23.3389 26.7178C23.3389 27.9285 24.2992 28.8915 25.5065 28.8915Z" fill="#600524"/>
<path d="M30.1988 24.544C29.019 24.544 28.0312 25.5071 28.0312 26.7178C28.0312 27.9285 28.9916 28.8915 30.1988 28.8915C31.4061 28.8915 32.3664 27.9285 32.3664 26.7178C32.3664 25.5346 31.3787 24.544 30.1988 24.544Z" fill="#600524"/>
<path d="M78.4343 32.2209H74.8125V35.853H78.4343V32.2209Z" fill="#600524"/>
<path d="M39.6649 30.5425C38.7869 29.2767 36.976 29.4693 36.976 29.4693C32.5859 29.4693 32.5859 34.9725 32.5859 34.9725C32.5859 37.8892 34.0401 40.7508 37.0309 40.7508C38.1009 40.7508 39.0064 40.4756 39.6375 39.6226H39.6923V40.4206H43.0946V29.6895H39.6923V30.5425H39.6649ZM37.9089 37.3113C36.9211 37.3113 36.1254 36.2657 36.1254 35C36.1254 33.7343 36.9211 32.6887 37.9089 32.6887C38.8966 32.6887 39.6923 33.7343 39.6923 35C39.6923 36.2932 38.8966 37.3113 37.9089 37.3113Z" fill="#600524"/>
<path d="M28.8817 30.5425C28.0037 29.2767 26.1928 29.4693 26.1928 29.4693C21.8027 29.4693 21.8027 34.9725 21.8027 34.9725C21.8027 37.8892 23.2569 40.7508 26.2477 40.7508C27.3177 40.7508 28.2232 40.4756 28.8543 39.6226H28.8817V40.4206H32.284V29.6895H28.8817V30.5425ZM26.8513 37.3664C25.8635 37.3664 25.0678 36.3208 25.0678 35.055C25.0678 33.7893 25.8635 32.7437 26.8513 32.7437C27.8391 32.7437 28.6348 33.7893 28.6348 35.055C28.6348 36.3483 27.8391 37.3664 26.8513 37.3664Z" fill="#600524"/>
<path d="M99.0399 30.4874C98.1619 29.2217 96.351 29.4143 96.351 29.4143C91.9609 29.4143 91.9609 34.9175 91.9609 34.9175C91.9609 37.8341 93.4151 40.6958 96.4059 40.6958C97.4759 40.6958 98.3814 40.4206 98.985 39.5676H99.0125V40.3656H102.415V29.6345H99.0399V30.4874ZM97.2839 37.2838C96.2961 37.2838 95.5004 36.2382 95.5004 34.9725C95.5004 33.7068 96.2961 32.6612 97.2839 32.6612C98.2716 32.6612 99.0673 33.7068 99.0673 34.9725C99.0673 36.2382 98.2716 37.2838 97.2839 37.2838Z" fill="#600524"/>
<path d="M110.455 37.2838H107.821L107.766 37.1737L111.168 29.5519H110.976H103.019V32.9638H105.818L102.635 40.283H110.455V37.2838Z" fill="#600524"/>
<path d="M120.14 22.2877C120.414 17.8027 114.186 15.5189 112.567 14.9961C110.921 11.0063 105.845 10.5385 103.677 10.5385C103.54 10.5385 103.43 10.5385 103.321 10.5385C102.113 8.30975 99.7811 7.12657 96.4612 7.12657C95.3362 7.12657 94.3759 7.26415 93.8546 7.37421C91.3577 5.09041 88.2572 4.59513 86.0348 4.59513C84.8549 4.59513 83.9221 4.7327 83.4007 4.81525C82.7422 4.20991 81.0685 3.05425 77.9955 3.05425C74.5109 3.05425 72.9469 4.45755 71.5476 5.72327C70.3403 6.79638 69.2977 7.73192 67.0203 7.73192C65.9228 7.73192 64.9625 7.64937 64.1668 7.48428C65.0722 6.60377 65.5387 5.36557 65.5387 3.82469C65.5387 1.01808 63.7278 0 62.5205 0C61.2584 0 59.42 1.01808 59.42 3.82469C59.42 5.39308 59.8591 6.60377 60.7919 7.48428C60.0237 7.64937 59.0908 7.73192 58.0482 7.73192C55.7708 7.73192 54.7282 6.79638 53.5209 5.72327C52.1216 4.48506 50.5576 3.05425 47.073 3.05425C43.9725 3.05425 42.3263 4.20991 41.6677 4.81525C41.1464 4.7327 40.1861 4.59513 39.0337 4.59513C36.8112 4.59513 33.6833 5.09041 31.2139 7.37421C30.6103 7.29167 29.65 7.15409 28.525 7.15409C25.2325 7.15409 22.8728 8.33726 21.6656 10.566C21.5558 10.566 21.446 10.566 21.3089 10.566C19.1413 10.5385 14.0378 11.0063 12.419 14.9686C10.8002 15.4914 4.54433 17.7752 4.84615 22.2877C3.39194 23.5259 -2.06819 28.5888 0.840218 33.7618C0.126834 36.6509 0.126834 42.0991 4.65408 44.2178C5.12052 45.7862 7.31555 51.8396 12.4464 52.2799C13.1873 53.5731 15.8213 57.5354 20.1016 57.5354C20.568 57.5354 21.0345 57.4803 21.5284 57.3978C22.5436 58.4159 25.7538 61.3326 29.211 61.3326C29.842 61.3326 30.4182 61.25 30.9944 61.0574C32.0096 61.8829 35.0827 64.0566 38.7319 64.0566C39.7471 64.0566 40.7074 63.8915 41.6403 63.5613C42.5458 64.2217 45.07 65.8451 47.512 65.8451C50.4753 65.8451 52.7801 64.4969 54.6459 63.4237C55.9354 62.6808 57.033 62.048 58.0756 61.9654C58.2951 61.9379 58.542 61.9379 58.7615 61.9379C59.5024 61.9379 60.2432 62.0204 60.9017 62.2131C59.8042 63.2311 59.2829 64.6895 59.3377 66.478C59.4475 69.2571 61.4504 70 62.5205 70H62.548C63.7278 70 65.7307 69.2296 65.7307 66.3129C65.7307 64.6344 65.1546 63.2311 64.0845 62.2406C64.7979 62.0755 65.621 61.9654 66.499 61.9654C66.6636 61.9654 66.8557 61.9654 67.0203 61.9654C68.063 61.9929 69.1879 62.6808 70.5049 63.4513C72.3433 64.5244 74.6206 65.8726 77.529 65.8726C79.9436 65.8726 82.4678 64.2492 83.3733 63.5888C84.3062 63.919 85.2939 64.0841 86.2817 64.0841C89.9309 64.0841 92.9766 61.9104 94.0192 61.0849C94.5954 61.2775 95.1716 61.3601 95.8026 61.3601C99.2598 61.3601 102.47 58.4159 103.485 57.4253C103.952 57.5354 104.446 57.5629 104.912 57.5629C109.192 57.5629 111.826 53.6006 112.567 52.3074C117.698 51.8671 119.866 45.8137 120.36 44.2453C124.859 42.1266 124.859 36.6785 124.173 33.7893C127.054 28.5888 121.594 23.4984 120.14 22.2877ZM62.4931 1.51336C62.5205 1.51336 64.0022 1.54088 64.0022 3.82469C64.0022 5.28302 63.5083 6.24607 62.4382 6.87893C61.3681 6.27359 60.9017 5.31053 60.9017 3.82469C60.9017 1.54088 62.4108 1.51336 62.4931 1.51336ZM64.1942 66.2579C64.1942 68.2665 62.9047 68.4041 62.5205 68.4041H62.4931C62.2187 68.4041 60.8743 68.294 60.8194 66.3404C60.7645 64.717 61.2858 63.5613 62.4656 62.8184C63.5906 63.5888 64.1942 64.7445 64.1942 66.2579ZM122.582 33.8168C122.664 34.092 124.448 40.8333 119.399 42.9245L119.043 43.0621L118.96 43.4198C118.933 43.5024 117.04 50.6289 112.073 50.739H111.607L111.415 51.1517C111.387 51.2068 108.945 55.967 104.885 55.967C104.391 55.967 103.897 55.8844 103.403 55.7744L102.964 55.6643L102.662 55.9945C102.635 56.022 99.2049 59.7641 95.8026 59.7641C95.2265 59.7641 94.6777 59.6541 94.1564 59.434L93.7174 59.2414L93.3607 59.5715C93.3332 59.5991 90.0956 62.4882 86.2817 62.4882C85.3214 62.4882 84.4159 62.2956 83.5379 61.9379L83.1264 61.7728L82.7697 62.048C82.7422 62.0755 79.9436 64.2492 77.5016 64.2492C75.0047 64.2492 73.0018 63.0936 71.2458 62.048C69.819 61.2225 68.4745 60.4245 67.0478 60.3695C66.8557 60.3695 66.6636 60.3695 66.4716 60.3695C64.9076 60.3695 63.5632 60.6171 62.4656 61.0849C61.3956 60.5896 60.0786 60.342 58.7341 60.342C58.4597 60.342 58.1853 60.342 57.911 60.3695C56.5391 60.4796 55.2495 61.25 53.8502 62.048C52.0667 63.0936 50.0363 64.2492 47.4846 64.2492C45.0426 64.2492 42.2439 62.048 42.2165 62.048L41.8598 61.7728L41.4482 61.9379C40.5977 62.2956 39.6648 62.4882 38.7045 62.4882C34.918 62.4882 31.6804 59.5991 31.6255 59.5715L31.2688 59.2414L30.8298 59.434C30.3085 59.6541 29.7597 59.7641 29.1835 59.7641C25.7812 59.7641 22.3515 56.022 22.3241 55.9945L22.0222 55.6643L21.5832 55.7744C21.0894 55.912 20.5955 55.967 20.1016 55.967C16.0408 55.967 13.5988 51.2068 13.5714 51.1517L13.3793 50.739H12.9129C7.94662 50.6289 6.02597 43.5024 6.02597 43.4198L5.94366 43.0621L5.55953 42.9245C0.510964 40.8333 2.29442 34.092 2.37674 33.8168L2.45905 33.4866L2.26699 33.2115C-0.696302 28.4788 5.99854 23.2508 6.08085 23.1958L6.43754 22.9206L6.38267 22.4803C5.75159 18.4631 13.1324 16.3443 13.2147 16.3168L13.5988 16.2068L13.736 15.8215C14.861 12.4371 19.4156 12.0519 21.3089 12.0519C21.7753 12.0519 22.0771 12.0794 22.0771 12.0794L22.6259 12.1344L22.8454 11.6392C23.9155 9.19025 26.5221 8.66745 28.5525 8.66745C30.0341 8.66745 31.2139 8.94261 31.2139 8.94261L31.6255 9.05267L31.9273 8.75C34.0949 6.57626 36.9484 6.13601 38.9788 6.13601C40.5428 6.13601 41.6952 6.41116 41.6952 6.41116L42.1616 6.52123L42.4634 6.13601C42.5183 6.08097 43.7256 4.59513 47.0181 4.59513C49.9265 4.59513 51.1613 5.69575 52.4508 6.87893C53.7678 8.06211 55.1397 9.2728 57.9933 9.2728C59.8316 9.2728 61.2858 9.05267 62.4382 8.58491C63.5906 9.05267 65.0997 9.2728 66.9655 9.2728C69.819 9.2728 71.1909 8.06211 72.5079 6.87893C73.8249 5.72327 75.0596 4.59513 77.9406 4.59513C81.2606 4.59513 82.4404 6.08097 82.4953 6.13601L82.7971 6.54874L83.291 6.43868C83.291 6.43868 84.4434 6.16352 86.0073 6.16352C88.0377 6.16352 90.8913 6.63129 93.0589 8.77752L93.3607 9.08019L93.7722 8.97013C93.7722 8.97013 94.9521 8.69497 96.4337 8.69497C98.4367 8.69497 101.071 9.21777 102.141 11.6667L102.36 12.162L102.909 12.1069C102.909 12.1069 103.211 12.0794 103.677 12.0794C105.571 12.0794 110.125 12.4371 111.25 15.8491L111.387 16.2343L111.771 16.3443C111.854 16.3719 119.235 18.4631 118.604 22.5079L118.521 22.9481L118.878 23.2233C118.933 23.2783 125.655 28.4788 122.692 33.239L122.527 33.5142L122.582 33.8168Z" fill="#600524"/>
<path d="M112.43 42.2367C111.003 42.2367 109.878 43.3923 109.878 44.7956C109.878 46.1989 111.03 47.3546 112.43 47.3546C113.829 47.3546 114.981 46.1989 114.981 44.7956C115.009 43.3923 113.856 42.2367 112.43 42.2367ZM112.43 47.1069C111.168 47.1069 110.125 46.0614 110.125 44.7956C110.125 43.5299 111.168 42.4843 112.43 42.4843C113.692 42.4843 114.734 43.5024 114.734 44.7956C114.734 46.0614 113.692 47.1069 112.43 47.1069Z" fill="#600524"/>
<path d="M113.582 44.1352C113.582 43.5299 113.116 43.2547 112.512 43.2547H111.524V46.3089H112.046V45.0432H112.457L113.226 46.3089H113.802L112.924 44.9332C113.335 44.8506 113.582 44.4929 113.582 44.1352ZM112.402 44.603H112.018V43.6674H112.402C112.759 43.6674 113.061 43.7225 113.061 44.1077C113.061 44.4929 112.814 44.603 112.402 44.603Z" fill="#600524"/>
<path d="M60.3803 29.1942C57.4719 28.4788 54.5909 30.0196 54.0421 33.6517C53.6031 36.6234 54.8378 39.9803 58.3224 40.5031C60.1882 40.7783 61.8619 40.3656 63.0966 39.485L63.2887 36.3758C62.5204 36.761 61.1485 37.5865 59.9687 37.614C59.612 37.614 58.4048 37.7791 57.8834 36.9811L64.0844 34.6423C63.9472 32.1934 62.9869 29.8545 60.3803 29.1942ZM57.3072 34.092C57.2798 33.8994 57.2249 33.7618 57.3621 33.349C57.6091 32.4961 58.295 31.8632 59.3651 32.0833C59.859 32.1934 60.1882 32.4135 60.3803 32.9088L57.3072 34.092Z" fill="#600524"/>
</svg>
