<?xml version="1.0" encoding="utf-8"?>
<!-- Generator: Adobe Illustrator 24.0.1, SVG Export Plug-In . SVG Version: 6.00 Build 0)  -->
<svg version="1.1" id="Layer_1" xmlns="http://www.w3.org/2000/svg" xmlns:xlink="http://www.w3.org/1999/xlink" x="0px" y="0px"
	 viewBox="0 0 480 128" style="enable-background:new 0 0 480 128;" xml:space="preserve">
<style type="text/css">
	.st0{fill:#1D1D1D;}
	.st1{fill:#D64920;}
	.st2{fill:#3B9D51;}
</style>
<g>
	<g>
		<g>
			<path class="st0" d="M173.51,122.19H8.38c-1.38,0-2.64-0.81-3.2-2.08c-0.56-1.26-0.33-2.74,0.6-3.77l80.45-89.09l-11.38-12.6
				c-1.3-1.43-1.18-3.65,0.25-4.94c1.43-1.3,3.65-1.18,4.94,0.25l10.9,12.07l10.9-12.07c1.3-1.44,3.51-1.55,4.94-0.25
				s1.55,3.51,0.25,4.94l-11.38,12.6l80.45,89.09c0.93,1.03,1.16,2.5,0.6,3.77C176.15,121.38,174.9,122.19,173.51,122.19z
				 M16.26,115.19h149.38L90.95,32.48L16.26,115.19z"/>
		</g>
		<g>
			<path class="st0" d="M90.95,30.75c-1.93,0-3.5-1.57-3.5-3.5V12.31c0-1.93,1.57-3.5,3.5-3.5s3.5,1.57,3.5,3.5v14.95
				C94.45,29.19,92.88,30.75,90.95,30.75z"/>
		</g>
		<g>
			<path class="st0" d="M42.91,50.43H31.8c-1.1,0-2-0.9-2-2s0.9-2,2-2h11.11c1.1,0,2,0.9,2,2S44.02,50.43,42.91,50.43z"/>
		</g>
		<g>
			<path class="st0" d="M37.36,55.99c-1.1,0-2-0.9-2-2V42.87c0-1.1,0.9-2,2-2s2,0.9,2,2v11.11C39.36,55.09,38.46,55.99,37.36,55.99z
				"/>
		</g>
		<g>
			<path class="st0" d="M160.41,73.45h-9.53c-1.1,0-2-0.9-2-2s0.9-2,2-2h9.53c1.1,0,2,0.9,2,2S161.52,73.45,160.41,73.45z"/>
		</g>
		<g>
			<path class="st0" d="M155.65,78.22c-1.1,0-2-0.9-2-2v-9.53c0-1.1,0.9-2,2-2s2,0.9,2,2v9.53
				C157.65,77.32,156.75,78.22,155.65,78.22z"/>
		</g>
		<g>
			<circle class="st1" cx="99.68" cy="71.06" r="7.54"/>
			<path class="st0" d="M99.68,81.6c-5.81,0-10.54-4.73-10.54-10.54s4.73-10.54,10.54-10.54s10.54,4.73,10.54,10.54
				S105.49,81.6,99.68,81.6z M99.68,66.52c-2.5,0-4.54,2.04-4.54,4.54c0,2.5,2.04,4.54,4.54,4.54c2.5,0,4.54-2.04,4.54-4.54
				C104.22,68.55,102.18,66.52,99.68,66.52z"/>
		</g>
		<g>
			<path class="st2" d="M40.93,118.69c0,0,20.24-29.77,22.63-32.95c2.38-3.18,6.35-11.11,11.11-11.11s8.73,5.56,13.5,11.91
				c4.76,6.35,8.73,11.91,19.05,3.97s17.47,5.56,21.44,11.11c3.97,5.56,12.31,17.07,12.31,17.07H40.93z"/>
			<path class="st0" d="M147.82,122.19H34.32l3.72-5.47c0.83-1.22,20.32-29.88,22.72-33.08c0.41-0.55,0.95-1.37,1.51-2.23
				c2.83-4.34,6.71-10.29,12.41-10.29c6.33,0,10.69,5.83,15.75,12.58l0.72,0.96c2.38,3.18,4.44,5.92,6.71,6.23
				c1.76,0.24,4.2-0.82,7.24-3.16c3.34-2.57,6.8-3.58,10.28-3.02c6.88,1.12,11.63,8.2,14.78,12.88c0.49,0.73,0.94,1.4,1.36,1.99
				c3.92,5.48,12.21,16.94,12.29,17.05L147.82,122.19z M47.55,115.19h86.57c-2.7-3.74-6.16-8.53-8.3-11.53
				c-0.45-0.63-0.94-1.36-1.47-2.15c-2.47-3.68-6.21-9.24-10.1-9.88c-1.52-0.25-3.12,0.29-4.88,1.65
				c-4.64,3.57-8.71,5.06-12.45,4.55c-5.17-0.71-8.32-4.91-11.37-8.97l-0.72-0.96c-3.6-4.8-7.32-9.77-10.14-9.77
				c-1.9,0-5.16,4.98-6.54,7.11c-0.63,0.96-1.22,1.87-1.77,2.6C64.8,89.92,54.83,104.51,47.55,115.19z"/>
		</g>
	</g>
	<g>
		<g>
			<path class="st0" d="M206.39,49.08c-1,0-1.5-0.62-1.5-1.87c0-1.25,0.5-1.87,1.5-1.87h13.05V42.7c0-0.52,0.28-0.78,0.83-0.78h6.15
				c0.55,0,0.83,0.26,0.83,0.78v2.64h13.05c1,0,1.5,0.62,1.5,1.87c0,1.24-0.5,1.87-1.5,1.87H206.39z M208.26,28.24
				c0.64,0.1,1.35,0.19,2.14,0.25c0.79,0.07,1.6,0.1,2.43,0.1s1.61-0.01,2.35-0.02c0.73-0.01,1.38-0.03,1.93-0.06
				c0.55,0,0.83,0.26,0.83,0.78v6.18c0,0.39,0.06,0.73,0.19,1.01c0.13,0.29,0.41,0.51,0.85,0.68c0.44,0.17,1.09,0.29,1.95,0.37
				c0.86,0.08,2.02,0.12,3.49,0.12c2.02,0,4.05-0.08,6.09-0.25c2.04-0.17,3.93-0.41,5.68-0.72c0.58-0.1,1.05,0,1.39,0.31
				c0.35,0.31,0.57,0.69,0.67,1.13c0.1,0.44,0.06,0.87-0.13,1.28c-0.18,0.42-0.52,0.67-1.02,0.78c-1.91,0.39-4.03,0.7-6.34,0.93
				c-2.31,0.23-4.71,0.35-7.17,0.35c-3.33,0-5.95-0.1-7.86-0.29c-1.91-0.19-3.34-0.51-4.28-0.93c-0.94-0.43-1.51-0.97-1.7-1.63
				c-0.19-0.66-0.22-1.46-0.08-2.39c0.08-0.6,0.15-1.21,0.19-1.85c0.04-0.63,0.05-1.17,0.02-1.61c0-0.29-0.04-0.53-0.1-0.72
				c-0.07-0.19-0.19-0.36-0.35-0.49c-0.17-0.13-0.39-0.25-0.67-0.37c-0.28-0.12-0.64-0.24-1.08-0.37c-0.64-0.21-0.9-0.69-0.79-1.44
				C207.03,28.48,207.49,28.11,208.26,28.24z M236.58,51.88c0.55,0,0.83,0.26,0.83,0.78v8.91c0,0.6-0.28,1.07-0.85,1.42
				c-0.57,0.35-1.52,0.53-2.85,0.53s-2.28-0.17-2.85-0.53c-0.57-0.35-0.85-0.82-0.85-1.42v-5.95h-19.46c-1,0-1.5-0.62-1.5-1.87
				c0-1.24,0.5-1.87,1.5-1.87H236.58z"/>
		</g>
		<g>
			<path class="st0" d="M245.47,58.88c-1,0-1.5-0.63-1.5-1.91s0.5-1.91,1.5-1.91h8.77V42.43c0-0.52,0.28-0.78,0.83-0.78h6.03
				c0.55,0,0.83,0.26,0.83,0.78v12.64h17.46c1,0,1.5,0.64,1.5,1.91s-0.5,1.91-1.5,1.91H245.47z M267.88,47.92
				c0.17-0.93,0.33-1.93,0.5-2.98c0.17-1.05,0.31-2.09,0.44-3.11c0.13-1.02,0.22-2.03,0.29-3.01c0.07-0.99,0.12-1.89,0.15-2.72
				c0.03-1.04-0.17-1.79-0.6-2.26c-0.43-0.47-1.13-0.7-2.1-0.7h-17.21c-1,0-1.5-0.65-1.5-1.94c0-1.32,0.5-1.97,1.5-1.94
				c1.91,0.08,3.85,0.14,5.8,0.19c1.95,0.05,3.91,0.08,5.88,0.08c1.72,0,3.37-0.01,4.95-0.04c1.58-0.03,3.28-0.08,5.11-0.16
				c3.99-0.16,5.99,1.84,5.99,5.99c0,1.01-0.05,2.1-0.15,3.27c-0.1,1.17-0.24,2.35-0.42,3.56c-0.18,1.21-0.4,2.41-0.67,3.6
				c-0.26,1.19-0.55,2.32-0.85,3.38c-0.22,0.75-0.69,1.28-1.41,1.58c-0.72,0.3-1.62,0.36-2.7,0.17c-1.08-0.18-1.89-0.52-2.41-1.03
				C267.94,49.33,267.74,48.69,267.88,47.92z"/>
		</g>
		<g>
			<path class="st0" d="M295.07,29.29c0.67,0,1.48-0.01,2.43-0.02c0.96-0.01,1.97-0.03,3.03-0.04c1.07-0.01,2.13-0.03,3.18-0.06
				c1.05-0.03,2-0.05,2.83-0.08c0.55,0,0.83,0.26,0.83,0.78v13.38c0,0.91-0.12,1.67-0.37,2.29s-0.76,1.12-1.54,1.5
				c-0.78,0.38-1.86,0.64-3.26,0.8c-1.4,0.16-3.25,0.23-5.55,0.23c-2.3,0-4.16-0.08-5.57-0.23s-2.52-0.42-3.31-0.8
				s-1.32-0.88-1.6-1.5c-0.28-0.62-0.42-1.4-0.42-2.33v-9.37c0-0.54-0.15-0.97-0.44-1.28s-0.84-0.6-1.64-0.86
				c-0.75-0.23-1.05-0.75-0.91-1.56c0.14-0.75,0.54-1.1,1.21-1.05c0.78,0.05,1.64,0.08,2.58,0.1c0.94,0.01,1.91,0.03,2.89,0.06
				c0.98,0.03,1.96,0.04,2.93,0.04C293.34,29.29,294.24,29.29,295.07,29.29z M284.97,58.42c-1,0-1.5-0.62-1.5-1.87
				c0-1.25,0.5-1.87,1.5-1.87h7.9v-4.86c0-0.52,0.28-0.78,0.83-0.78h5.99c0.55,0,0.83,0.26,0.83,0.78v4.63
				c1.33-0.13,2.6-0.29,3.8-0.47c1.21-0.18,2.27-0.4,3.18-0.66c0.58-0.16,1.07-0.1,1.46,0.17c0.39,0.27,0.64,0.62,0.77,1.03
				c0.12,0.42,0.11,0.84-0.04,1.26c-0.15,0.43-0.48,0.72-0.98,0.88c-1.58,0.52-3.47,0.94-5.68,1.26c-2.2,0.33-4.5,0.49-6.88,0.49
				H284.97z M292.54,32.9c0.19,0.36,0.31,0.8,0.35,1.3c0.04,0.5,0.06,0.98,0.06,1.42v7.35c0,0.29,0.04,0.52,0.12,0.7
				c0.08,0.18,0.25,0.33,0.5,0.45c0.25,0.12,0.62,0.2,1.1,0.25c0.48,0.05,1.13,0.08,1.93,0.08c0.8,0,1.45-0.03,1.93-0.08
				c0.48-0.05,0.85-0.14,1.1-0.25c0.25-0.12,0.42-0.27,0.5-0.45c0.08-0.18,0.13-0.42,0.13-0.7V32.9H292.54z M314.61,62.93
				c-2.36,0-3.53-0.77-3.53-2.29V28.7c0-0.52,0.28-0.78,0.83-0.78h5.4c0.55,0,0.83,0.26,0.83,0.78v31.93
				C318.15,62.16,316.97,62.93,314.61,62.93z"/>
		</g>
		<g>
			<path class="st0" d="M351.07,54.02v7c0,1.53-1.21,2.29-3.62,2.29c-2.41,0-3.62-0.76-3.62-2.29v-7h-6.57v7
				c0,1.53-1.21,2.29-3.62,2.29c-2.41,0-3.62-0.76-3.62-2.29v-7h-6.4c-1,0-1.5-0.62-1.5-1.87c0-1.24,0.5-1.87,1.5-1.87h33.93
				c1,0,1.5,0.62,1.5,1.87c0,1.25-0.5,1.87-1.5,1.87H351.07z M355.52,31.15c1,0,1.5,0.61,1.5,1.83s-0.5,1.83-1.5,1.83h-29.85
				c-1,0-1.5-0.61-1.5-1.83s0.5-1.83,1.5-1.83h11.06v-1.09c0-0.34-0.1-0.58-0.29-0.74c-0.19-0.16-0.67-0.36-1.41-0.62
				c-0.69-0.21-0.98-0.7-0.87-1.48c0.14-0.83,0.54-1.21,1.21-1.13c0.78,0.13,1.68,0.22,2.7,0.27s2.02,0.08,2.99,0.08
				c0.53,0,1.1-0.01,1.73-0.02c0.62-0.01,1.2-0.02,1.73-0.02c0.55,0,0.83,0.26,0.83,0.78v1.87c0,1.22-0.5,1.92-1.5,2.1H355.52z
				 M353.94,42.39c0,2.23-1.18,3.86-3.53,4.88c-2.36,1.03-5.63,1.54-9.81,1.54c-4.19,0-7.46-0.51-9.81-1.54
				c-2.36-1.02-3.53-2.65-3.53-4.88c0-2.23,1.18-3.86,3.53-4.88s5.63-1.54,9.81-1.54c4.19,0,7.46,0.51,9.81,1.54
				C352.77,38.54,353.94,40.16,353.94,42.39z M346.46,42.39c0-0.99-0.5-1.69-1.5-2.12c-1-0.43-2.45-0.64-4.37-0.64
				c-1.91,0-3.37,0.21-4.37,0.64c-1,0.43-1.5,1.13-1.5,2.12s0.5,1.69,1.5,2.12c1,0.43,2.45,0.64,4.37,0.64
				c1.91,0,3.37-0.21,4.37-0.64C345.96,44.08,346.46,43.38,346.46,42.39z"/>
		</g>
		<g>
			<path class="st0" d="M361.34,37.26c0-2.98,0.94-5.28,2.83-6.88c1.88-1.61,4.68-2.41,8.4-2.41c3.71,0,6.51,0.8,8.4,2.41
				c1.88,1.61,2.83,3.9,2.83,6.88s-0.94,5.28-2.83,6.88c-1.89,1.61-4.68,2.41-8.4,2.41c-3.71,0-6.51-0.8-8.4-2.41
				C362.29,42.54,361.34,40.24,361.34,37.26z M367.87,55.97c0-1.11,0.26-2.15,0.79-3.11c0.53-0.96,1.32-1.78,2.39-2.45
				c1.07-0.67,2.41-1.21,4.03-1.59c1.62-0.39,3.53-0.58,5.72-0.58c2.19,0,4.1,0.19,5.72,0.58c1.62,0.39,2.97,0.92,4.03,1.59
				c1.07,0.67,1.86,1.49,2.39,2.45c0.53,0.96,0.79,2,0.79,3.11c0,1.14-0.26,2.18-0.79,3.13c-0.53,0.95-1.32,1.76-2.39,2.43
				c-1.07,0.67-2.41,1.21-4.03,1.59s-3.53,0.58-5.72,0.58c-2.19,0-4.1-0.19-5.72-0.58c-1.62-0.39-2.97-0.92-4.03-1.59
				c-1.07-0.67-1.86-1.48-2.39-2.43C368.13,58.15,367.87,57.11,367.87,55.97z M368.62,37.26c0,1.98,0.35,3.41,1.04,4.27
				c0.69,0.86,1.66,1.29,2.91,1.29c1.25,0,2.22-0.43,2.91-1.29s1.04-2.29,1.04-4.27s-0.35-3.41-1.04-4.27s-1.66-1.29-2.91-1.29
				c-1.25,0-2.22,0.43-2.91,1.29C368.97,33.85,368.62,35.28,368.62,37.26z M375.35,55.97c0,1.27,0.49,2.28,1.48,3.01
				c0.98,0.74,2.31,1.11,3.97,1.11s2.99-0.37,3.97-1.11c0.98-0.74,1.48-1.74,1.48-3.01c0-1.27-0.49-2.28-1.48-3.01
				c-0.98-0.74-2.31-1.11-3.97-1.11s-2.99,0.37-3.97,1.11C375.85,53.69,375.35,54.7,375.35,55.97z M393.94,45.82
				c0,0.75-0.28,1.32-0.83,1.69c-0.55,0.38-1.46,0.56-2.7,0.56c-1.25,0-2.15-0.19-2.7-0.56c-0.55-0.38-0.83-0.94-0.83-1.69V28.7
				c0-0.52,0.28-0.78,0.83-0.78h5.4c0.55,0,0.83,0.26,0.83,0.78v3.11h3.78c1,0,1.5,0.61,1.5,1.83s-0.5,1.83-1.5,1.83h-3.78v3.66
				h3.78c1,0,1.5,0.61,1.5,1.83s-0.5,1.83-1.5,1.83h-3.78V45.82z"/>
		</g>
		<g>
			<path class="st0" d="M400.92,49.12c-0.53,0.03-0.93-0.14-1.21-0.51c-0.28-0.36-0.43-0.77-0.46-1.22
				c-0.03-0.45,0.08-0.88,0.33-1.28s0.65-0.62,1.21-0.64l2.2-0.08c-0.72-0.44-1.08-1.7-1.08-3.77v-7.7c0-0.52-0.08-0.87-0.25-1.05
				c-0.17-0.18-0.44-0.27-0.83-0.27h-0.42c-1,0-1.5-0.61-1.5-1.83s0.5-1.83,1.5-1.83c0.83,0.05,1.61,0.08,2.35,0.1
				c0.73,0.01,1.46,0.03,2.18,0.06c0.72,0.03,1.45,0.04,2.18,0.04c0.73,0,1.5,0,2.31,0c0.8,0,1.54,0,2.2,0s1.31-0.01,1.93-0.04
				c0.62-0.03,1.27-0.04,1.93-0.06c0.67-0.01,1.41-0.04,2.25-0.1c1,0,1.5,0.61,1.5,1.83s-0.5,1.83-1.5,1.83h-1.29v8.94
				c0,0.7-0.1,1.3-0.29,1.81c-0.19,0.51-0.44,0.93-0.75,1.26c0.47-0.03,0.94-0.05,1.39-0.08c0.46-0.03,0.89-0.06,1.31-0.12
				c0.5-0.03,0.89,0.12,1.19,0.43c0.29,0.31,0.46,0.67,0.5,1.09c0.04,0.42-0.04,0.8-0.25,1.17c-0.21,0.36-0.55,0.57-1.02,0.62
				c-1.22,0.13-2.54,0.27-3.97,0.41c-1.43,0.14-2.9,0.27-4.43,0.39c-1.52,0.12-3.07,0.23-4.64,0.33
				C403.95,48.95,402.42,49.04,400.92,49.12z M408.78,55.46c0-0.65-0.11-1.12-0.33-1.42c-0.22-0.3-0.68-0.54-1.37-0.72
				c-0.31-0.08-0.54-0.25-0.71-0.51c-0.17-0.26-0.22-0.58-0.17-0.97c0.06-0.42,0.21-0.72,0.46-0.91c0.25-0.19,0.53-0.27,0.83-0.21
				c0.67,0.13,1.48,0.22,2.43,0.27c0.96,0.05,1.86,0.08,2.72,0.08c0.5,0,0.99-0.01,1.48-0.02c0.48-0.01,0.94-0.02,1.35-0.02
				c0.55,0,0.83,0.26,0.83,0.78v5.68c0,0.29,0.07,0.54,0.21,0.76c0.14,0.22,0.45,0.4,0.94,0.54c0.48,0.14,1.21,0.25,2.16,0.31
				c0.96,0.07,2.25,0.1,3.89,0.1c2.16,0,4.23-0.12,6.22-0.37c1.98-0.25,3.69-0.56,5.13-0.95c0.53-0.16,0.98-0.1,1.35,0.17
				s0.63,0.62,0.77,1.03c0.14,0.42,0.13,0.83-0.02,1.24c-0.15,0.42-0.48,0.7-0.98,0.86c-1.61,0.52-3.6,0.94-5.97,1.26
				c-2.37,0.32-4.82,0.49-7.34,0.49c-3.13,0-5.62-0.08-7.46-0.25c-1.84-0.17-3.24-0.43-4.2-0.78c-0.96-0.35-1.57-0.8-1.83-1.34
				c-0.26-0.54-0.4-1.19-0.4-1.94V55.46z M407.91,42c0,1.27,0.12,2.29,0.37,3.07l1.79-0.08c0.14-0.39,0.24-0.85,0.31-1.38
				c0.07-0.53,0.1-1.09,0.1-1.69v-9.33h-2.58V42z M427.7,50.72c0,0.65-0.24,1.15-0.71,1.5c-0.47,0.35-1.26,0.53-2.37,0.53
				c-1.08,0-1.86-0.17-2.33-0.53c-0.47-0.35-0.71-0.85-0.71-1.5v-10.7h-2.62c-0.97,0-1.46-0.61-1.46-1.83
				c0-1.22,0.48-1.83,1.46-1.83h2.62V28.9c0-0.52,0.28-0.78,0.83-0.78h4.45c0.55,0,0.83,0.26,0.83,0.78V50.72z M429.15,28.7
				c0-0.52,0.28-0.78,0.83-0.78h4.57c0.55,0,0.83,0.26,0.83,0.78v22.6c0,0.65-0.24,1.15-0.71,1.5c-0.47,0.35-1.27,0.53-2.41,0.53
				c-1.14,0-1.94-0.17-2.41-0.53c-0.47-0.35-0.71-0.85-0.71-1.5V28.7z"/>
		</g>
		<g>
			<path class="st0" d="M457.47,30.61c-0.3,1.48-0.76,2.9-1.37,4.28c-0.61,1.38-1.34,2.7-2.2,3.97c1.39,0.7,2.79,1.5,4.2,2.39
				c1.41,0.89,2.77,1.83,4.07,2.82c0.61,0.47,0.89,1.02,0.85,1.65c-0.04,0.64-0.27,1.19-0.69,1.65c-0.42,0.47-0.94,0.76-1.56,0.89
				s-1.2-0.08-1.73-0.62c-1.08-1.11-2.22-2.22-3.41-3.31s-2.41-2.1-3.66-3.03c-1.36,1.58-2.89,3.01-4.59,4.3
				c-1.7,1.28-3.51,2.42-5.43,3.4c-0.53,0.26-1.01,0.32-1.46,0.19s-0.79-0.36-1.04-0.68c-0.25-0.32-0.37-0.7-0.37-1.13
				s0.19-0.8,0.58-1.11c1.14-0.96,2.18-2,3.14-3.11c0.96-1.11,1.81-2.27,2.56-3.46c0.75-1.19,1.38-2.41,1.91-3.64
				c0.53-1.23,0.93-2.44,1.21-3.64c0.05-0.26,0.08-0.47,0.08-0.64c0-0.17-0.06-0.32-0.17-0.45c-0.11-0.13-0.28-0.26-0.52-0.39
				c-0.24-0.13-0.56-0.29-0.98-0.47c-0.31-0.13-0.53-0.33-0.67-0.6c-0.14-0.27-0.14-0.59,0-0.95c0.22-0.8,0.67-1.13,1.33-0.97
				c1.41,0.36,2.91,0.67,4.49,0.93c1.58,0.26,3.09,0.42,4.53,0.47C457.34,29.42,457.63,29.83,457.47,30.61z M447.53,55.07
				c0-0.65-0.11-1.12-0.33-1.42c-0.22-0.3-0.68-0.54-1.37-0.72c-0.31-0.08-0.54-0.25-0.71-0.51c-0.17-0.26-0.22-0.58-0.17-0.97
				c0.05-0.42,0.21-0.72,0.46-0.91c0.25-0.19,0.53-0.27,0.83-0.21c0.67,0.13,1.48,0.22,2.43,0.27c0.96,0.05,1.86,0.08,2.72,0.08
				c0.5,0,0.99-0.01,1.48-0.02c0.48-0.01,0.94-0.02,1.35-0.02c0.55,0,0.83,0.26,0.83,0.78v6.07c0,0.29,0.07,0.54,0.21,0.76
				c0.14,0.22,0.44,0.4,0.92,0.54c0.47,0.14,1.17,0.25,2.1,0.31c0.93,0.07,2.18,0.1,3.76,0.1c2.16,0,4.23-0.12,6.19-0.37
				c1.97-0.25,3.67-0.56,5.11-0.95c0.53-0.16,0.98-0.1,1.35,0.17s0.63,0.62,0.77,1.03c0.14,0.42,0.13,0.83-0.02,1.24
				c-0.15,0.42-0.48,0.7-0.98,0.86c-1.61,0.52-3.59,0.94-5.95,1.26c-2.36,0.32-4.8,0.49-7.32,0.49c-3.08,0-5.52-0.08-7.34-0.25
				c-1.82-0.17-3.2-0.43-4.14-0.78c-0.94-0.35-1.55-0.8-1.81-1.34c-0.26-0.54-0.4-1.19-0.4-1.94V55.07z M466.9,41.58h-5.32
				c-0.89,0-1.33-0.58-1.33-1.75s0.44-1.75,1.33-1.75h5.32v-2.49h-5.32c-0.89,0-1.33-0.58-1.33-1.75s0.44-1.75,1.33-1.75h5.32V28.7
				c0-0.52,0.28-0.78,0.83-0.78h5.32c0.55,0,0.83,0.26,0.83,0.78v21.97c0,0.75-0.27,1.32-0.81,1.69c-0.54,0.38-1.43,0.56-2.68,0.56
				s-2.14-0.19-2.68-0.56c-0.54-0.38-0.81-0.94-0.81-1.69V41.58z"/>
		</g>
		<g>
			<path class="st0" d="M256.57,75.41c-0.06,1.53-0.22,3.03-0.48,4.49c-0.26,1.47-0.63,2.9-1.1,4.3c1.61,1.71,3.17,3.57,4.7,5.56
				c1.52,2,2.91,4.04,4.16,6.14c0.25,0.42,0.28,0.8,0.1,1.17c-0.18,0.36-0.45,0.64-0.81,0.82c-0.36,0.18-0.74,0.25-1.14,0.19
				c-0.4-0.05-0.71-0.29-0.94-0.7c-0.97-1.79-2.06-3.62-3.28-5.5c-1.22-1.88-2.45-3.6-3.7-5.15c-0.97,2.36-2.13,4.51-3.49,6.46
				c-1.36,1.95-2.74,3.63-4.16,5.06c-0.28,0.29-0.59,0.42-0.94,0.41c-0.35-0.01-0.64-0.11-0.87-0.29c-0.24-0.18-0.39-0.42-0.46-0.72
				c-0.07-0.3,0.02-0.6,0.27-0.91c1.14-1.32,2.21-2.77,3.22-4.34c1.01-1.57,1.9-3.25,2.66-5.06c0.76-1.8,1.37-3.7,1.83-5.7
				c0.46-2,0.71-4.07,0.77-6.22h-6.53c-0.61,0-0.91-0.4-0.91-1.21s0.3-1.21,0.91-1.21h16.17c0.61,0,0.91,0.4,0.91,1.21
				s-0.31,1.21-0.91,1.21H256.57z M270.13,104.11c0,0.78-0.57,1.17-1.7,1.17c-1.14,0-1.71-0.39-1.71-1.17v-19.1h-6.11
				c-0.61,0-0.91-0.4-0.91-1.21s0.3-1.21,0.91-1.21h6.11v-11.2c0-0.21,0.11-0.31,0.33-0.31h2.74c0.22,0,0.33,0.1,0.33,0.31V104.11z
				 M277.44,104.5c0,0.78-0.57,1.17-1.71,1.17c-1.14,0-1.7-0.39-1.7-1.17V71.21c0-0.21,0.11-0.31,0.33-0.31h2.74
				c0.22,0,0.33,0.1,0.33,0.31V104.5z"/>
		</g>
		<g>
			<path class="st0" d="M303.3,104.54c0,0.78-0.6,1.17-1.79,1.17c-1.19,0-1.79-0.39-1.79-1.17V93.18h-15.18
				c-0.61,0-0.91-0.4-0.91-1.21s0.3-1.21,0.91-1.21h33.93c0.61,0,0.92,0.4,0.92,1.21s-0.31,1.21-0.92,1.21H303.3V104.54z
				 M303.76,74.09c-0.08,1.35-0.47,2.61-1.16,3.77c2.13,0.86,4.28,1.87,6.44,3.03s4.16,2.41,5.99,3.73
				c0.42,0.31,0.63,0.67,0.64,1.09c0.01,0.42-0.1,0.78-0.33,1.11c-0.24,0.32-0.55,0.54-0.96,0.66c-0.4,0.12-0.81,0.01-1.23-0.33
				c-1.75-1.4-3.65-2.75-5.7-4.04c-2.05-1.3-4.1-2.45-6.15-3.46c-0.72,0.86-1.55,1.67-2.47,2.45c-0.93,0.78-1.93,1.5-3.01,2.18
				c-1.08,0.67-2.22,1.3-3.43,1.89c-1.21,0.58-2.42,1.11-3.64,1.58c-0.39,0.16-0.73,0.15-1.02-0.02c-0.29-0.17-0.5-0.39-0.62-0.68
				c-0.13-0.29-0.15-0.58-0.06-0.89c0.08-0.31,0.32-0.54,0.71-0.7c1.75-0.73,3.35-1.53,4.8-2.41c1.46-0.88,2.71-1.81,3.76-2.78
				c1.05-0.97,1.9-1.98,2.54-3.01c0.64-1.04,1.01-2.09,1.12-3.15h-10.69c-0.61,0-0.91-0.4-0.91-1.21s0.3-1.21,0.91-1.21h24.45
				c0.61,0,0.91,0.4,0.91,1.21s-0.31,1.21-0.91,1.21H303.76z"/>
		</g>
		<g>
			<path class="st0" d="M325.34,81.32c-0.61,0-0.91-0.39-0.91-1.17c0-0.78,0.3-1.17,0.91-1.17h4.62c1.25,0,2.54-0.07,3.89-0.21
				c1.34-0.14,2.5-0.3,3.47-0.49c0.11-0.31,0.19-0.62,0.23-0.93c0.04-0.31,0.09-0.62,0.15-0.93c0.06-0.83-0.04-1.4-0.27-1.71
				c-0.24-0.31-0.71-0.47-1.43-0.47h-9.56c-0.61,0-0.91-0.4-0.91-1.21c0-0.8,0.3-1.21,0.91-1.21h10.64c1.58,0,2.67,0.34,3.28,1.01
				c0.61,0.67,0.86,1.85,0.75,3.54c-0.11,1.61-0.55,3.13-1.33,4.55c-0.78,1.43-1.82,2.73-3.14,3.91c-1.32,1.18-2.86,2.21-4.62,3.09
				c-1.76,0.88-3.68,1.58-5.76,2.1c-0.39,0.1-0.71,0.06-0.98-0.14c-0.26-0.19-0.44-0.43-0.54-0.72c-0.1-0.28-0.09-0.58,0.02-0.88
				c0.11-0.3,0.35-0.5,0.71-0.6c2.55-0.75,4.75-1.74,6.61-2.97c1.86-1.23,3.27-2.64,4.24-4.22c-1.03,0.26-2.14,0.46-3.35,0.6
				c-1.21,0.14-2.35,0.21-3.43,0.21H325.34z M355.15,101c0,1.32-0.41,2.33-1.23,3.03c-0.82,0.7-2.13,1.05-3.93,1.05h-13.64
				c-1.8,0-3.11-0.35-3.93-1.05c-0.82-0.7-1.23-1.71-1.23-3.03V95.6c0-0.41-0.08-0.73-0.25-0.95s-0.44-0.42-0.83-0.6
				c-0.47-0.21-0.67-0.54-0.58-1.01s0.39-0.69,0.91-0.66c0.64,0.05,1.33,0.09,2.08,0.12c0.75,0.03,1.48,0.04,2.2,0.04h20.08
				c0.22,0,0.33,0.1,0.33,0.31V101z M334.69,94.93v5.82c0,1.28,0.8,1.92,2.41,1.92h12.14c1.61,0,2.41-0.64,2.41-1.92v-5.82H334.69z
				 M347.29,80.54v8.25c0,0.78-0.57,1.17-1.7,1.17c-1.11,0-1.66-0.39-1.66-1.17V71.41c0-0.21,0.11-0.31,0.33-0.31h2.7
				c0.22,0,0.33,0.1,0.33,0.31v6.73h4.45v-6.92c0-0.21,0.11-0.31,0.33-0.31h2.74c0.22,0,0.33,0.1,0.33,0.31v17.97
				c0,0.78-0.57,1.17-1.7,1.17c-1.14,0-1.7-0.39-1.7-1.17v-8.63H347.29z"/>
		</g>
		<g>
			<path class="st0" d="M364.17,74.25c-0.61,0-0.91-0.4-0.91-1.21c0-0.8,0.3-1.21,0.91-1.21h21.54c0.61,0,0.91,0.4,0.91,1.21
				c0,0.8-0.31,1.21-0.91,1.21h-3.7v7.31c0,0.7-0.1,1.36-0.29,1.98c-0.19,0.62-0.47,1.13-0.83,1.52c0.97-0.1,1.9-0.2,2.79-0.29
				c0.89-0.09,1.72-0.19,2.49-0.29c0.36-0.05,0.64,0.03,0.85,0.25c0.21,0.22,0.33,0.47,0.37,0.76c0.04,0.29,0,0.56-0.12,0.82
				c-0.13,0.26-0.35,0.4-0.69,0.43c-1.41,0.18-2.97,0.36-4.66,0.53c-1.69,0.17-3.47,0.32-5.34,0.45c-1.87,0.13-3.81,0.24-5.82,0.33
				c-2.01,0.09-4.05,0.16-6.13,0.21c-0.78,0-1.18-0.38-1.21-1.13c-0.03-0.36,0.03-0.67,0.19-0.91c0.15-0.25,0.42-0.37,0.81-0.37
				l4.91-0.12c-0.97-0.52-1.46-1.58-1.46-3.19v-7.7c0-0.34-0.17-0.53-0.5-0.58H364.17z M370.24,98.79c0-1.17,0.26-2.22,0.77-3.15
				c0.51-0.93,1.26-1.74,2.25-2.41c0.98-0.67,2.19-1.19,3.62-1.56c1.43-0.36,3.04-0.54,4.84-0.54c1.8,0,3.42,0.18,4.84,0.54
				c1.43,0.36,2.63,0.88,3.62,1.56c0.98,0.67,1.73,1.48,2.25,2.41c0.51,0.93,0.77,1.98,0.77,3.15s-0.26,2.22-0.77,3.15
				c-0.51,0.93-1.26,1.74-2.25,2.41c-0.98,0.67-2.19,1.19-3.62,1.56c-1.43,0.36-3.04,0.54-4.84,0.54c-1.8,0-3.42-0.18-4.84-0.54
				c-1.43-0.36-2.63-0.88-3.62-1.56c-0.98-0.67-1.73-1.48-2.25-2.41C370.5,101,370.24,99.95,370.24,98.79z M377.27,85.33
				c0.42-0.18,0.73-0.56,0.94-1.13c0.21-0.57,0.31-1.27,0.31-2.1v-7.86h-7.15v8.05c0,0.88,0.11,1.61,0.33,2.2
				c0.22,0.58,0.58,0.94,1.08,1.07L377.27,85.33z M373.77,98.79c0,1.56,0.69,2.81,2.06,3.75s3.33,1.42,5.88,1.42
				c2.55,0,4.51-0.47,5.88-1.42s2.06-2.2,2.06-3.75s-0.69-2.81-2.06-3.75s-3.33-1.42-5.88-1.42c-2.55,0-4.51,0.47-5.88,1.42
				S373.77,97.23,373.77,98.79z M393.81,89.57c0,0.78-0.58,1.17-1.75,1.17s-1.75-0.39-1.75-1.17V71.21c0-0.21,0.11-0.31,0.33-0.31
				h2.83c0.22,0,0.33,0.1,0.33,0.31V89.57z"/>
		</g>
		<g>
			<path class="st0" d="M415.35,74.25c-0.06,0.88-0.22,1.77-0.5,2.66c-0.28,0.89-0.65,1.78-1.12,2.66c1.75,0.99,3.41,2.03,4.99,3.13
				c1.58,1.1,3.12,2.29,4.62,3.56c0.39,0.31,0.55,0.66,0.5,1.05c-0.06,0.39-0.22,0.71-0.5,0.97c-0.28,0.26-0.62,0.42-1.04,0.47
				c-0.42,0.05-0.79-0.08-1.12-0.39c-1.33-1.32-2.71-2.56-4.14-3.71c-1.43-1.15-2.89-2.24-4.39-3.25c-1.14,1.66-2.52,3.21-4.16,4.67
				c-1.64,1.45-3.41,2.71-5.32,3.77c-0.36,0.21-0.7,0.25-1.02,0.14c-0.32-0.12-0.56-0.3-0.73-0.54c-0.17-0.25-0.24-0.52-0.23-0.82
				c0.01-0.3,0.19-0.55,0.52-0.76c1.33-0.8,2.57-1.72,3.72-2.74c1.15-1.02,2.18-2.11,3.08-3.27c0.9-1.15,1.63-2.37,2.18-3.66
				c0.55-1.28,0.89-2.6,1-3.95h-8.19c-0.61,0-0.91-0.4-0.91-1.21c0-0.8,0.3-1.21,0.91-1.21h19.04c0.61,0,0.91,0.4,0.91,1.21
				c0,0.8-0.31,1.21-0.91,1.21H415.35z M407.95,98.71c0-1.17,0.26-2.22,0.77-3.17c0.51-0.95,1.27-1.76,2.27-2.43
				c1-0.67,2.22-1.2,3.66-1.58c1.44-0.38,3.09-0.56,4.95-0.56s3.51,0.19,4.95,0.56c1.44,0.38,2.66,0.9,3.66,1.58
				c1,0.67,1.75,1.48,2.27,2.43c0.51,0.95,0.77,2,0.77,3.17c0,1.17-0.26,2.22-0.77,3.17c-0.51,0.95-1.27,1.76-2.27,2.43
				c-1,0.67-2.22,1.2-3.66,1.58c-1.44,0.38-3.09,0.56-4.95,0.56s-3.51-0.19-4.95-0.56c-1.44-0.38-2.66-0.9-3.66-1.58
				c-1-0.67-1.75-1.48-2.27-2.43C408.21,100.93,407.95,99.87,407.95,98.71z M411.52,98.71c0,1.56,0.69,2.81,2.08,3.77
				c1.39,0.96,3.38,1.44,5.99,1.44c2.6,0,4.6-0.48,5.99-1.44c1.39-0.96,2.08-2.22,2.08-3.77s-0.69-2.81-2.08-3.77
				c-1.39-0.96-3.38-1.44-5.99-1.44c-2.61,0-4.6,0.48-5.99,1.44C412.22,95.89,411.52,97.15,411.52,98.71z M436.55,79.03
				c0.61,0,0.92,0.4,0.92,1.21s-0.31,1.21-0.92,1.21h-5.57v8.25c0,0.78-0.58,1.17-1.75,1.17c-1.16,0-1.75-0.39-1.75-1.17V71.21
				c0-0.21,0.11-0.31,0.33-0.31h2.83c0.22,0,0.33,0.1,0.33,0.31v7.82H436.55z"/>
		</g>
	</g>
</g>
</svg>
